<svg xmlns="http://www.w3.org/2000/svg" xmlns:xlink="http://www.w3.org/1999/xlink" aria-hidden="true" role="img" width="1em" height="1em" preserveAspectRatio="xMidYMid meet" viewBox="0 0 256 256"><path d="M230 128a102 102 0 1 0-170.773 75.26a5.962 5.962 0 0 0 1.177 1.054a101.789 101.789 0 0 0 135.196-.003a5.95 5.95 0 0 0 1.168-1.046A101.753 101.753 0 0 0 230 128zm-192 0a90 90 0 1 1 155.514 61.64a77.582 77.582 0 0 0-40.003-31.385a46 46 0 1 0-51.022 0a77.58 77.58 0 0 0-40.003 31.385A89.671 89.671 0 0 1 38 128zm56-8a34 34 0 1 1 34 34a34.039 34.039 0 0 1-34-34zm-22.557 77.953a66.028 66.028 0 0 1 113.113 0a89.803 89.803 0 0 1-113.113 0z" fill="#3ea6ff"/></svg>